<svg height="512" viewBox="0 0 64 64" width="512" xmlns="http://www.w3.org/2000/svg"><g id="flat"><path d="m39.428 44.409c-.144-.145-.286-.277-.428-.409 3.062-.819 7-2 7-2s-3.686-4-7-4h-1c-.445-.732-3-2-6-2s-5.555 1.268-6 2h-1c-3.314 0-7 4-7 4s3.938 1.181 7 2c-.142.132-.284.264-.428.409-3.096 3.096-5.572 10.591-5.572 10.591s5.649-1.348 9-4c.709 4.72 4 10 4 10s3.291-5.28 4-10c3.351 2.652 9 4 9 4s-2.476-7.495-5.572-10.591z" fill="#f9bb4b"/><path d="m38.857 48.485c-1.525-2.543-3.059-5.364-4.191-7.506l2.779 1.853 1.11-1.664-5.555-3.703v-1.465h-2v1.465l-5.555 3.7 1.11 1.664 2.779-1.853c-1.131 2.142-2.665 4.962-4.191 7.506l1.714 1.03c1.5-2.5 3.009-5.266 4.143-7.407v10.895h2v-10.892c1.134 2.141 2.643 4.907 4.143 7.407z" fill="#fcf05a"/><path d="m7 5.172h2v5.657h-2z" fill="#ffd782" transform="matrix(.707 -.707 .707 .707 -3.314 8)"/><path d="m13 11.172h2v5.657h-2z" fill="#ffd782" transform="matrix(.707 -.707 .707 .707 -5.799 14)"/><path d="m19 17.172h2v5.657h-2z" fill="#ffd782" transform="matrix(.707 -.707 .707 .707 -8.284 20)"/><path d="m30 28h-3a1 1 0 0 1 -.707-.293l-3-3 1.414-1.414 2.707 2.707h2.586z" fill="#ffd782"/><path d="m53.172 7h5.657v2h-5.657z" fill="#ffd782" transform="matrix(.707 -.707 .707 .707 10.745 41.941)"/><path d="m47.172 13h5.657v2h-5.657z" fill="#ffd782" transform="matrix(.707 -.707 .707 .707 4.745 39.456)"/><path d="m41.172 19h5.657v2h-5.657z" fill="#ffd782" transform="matrix(.707 -.707 .707 .707 -1.255 36.971)"/><path d="m37 28h-3v-2h2.586l2.707-2.707 1.414 1.414-3 3a1 1 0 0 1 -.707.293z" fill="#ffd782"/><path d="m32 37a5.006 5.006 0 0 1 -5-5 5.148 5.148 0 0 1 3.75-4.969l.5 1.938a3.161 3.161 0 0 0 -2.25 3.031 3 3 0 0 0 6 0 3.161 3.161 0 0 0 -2.25-3.031l.5-1.938a5.148 5.148 0 0 1 3.75 4.969 5.006 5.006 0 0 1 -5 5z" fill="#ad6327"/><g fill="#f9bb4b"><path d="m33 32h-2l-2-8h6z"/><path d="m3 3v3l2 2 3-3-2-2z"/><path d="m8.879 8.879h4.243v4.243h-4.243z" transform="matrix(.707 -.707 .707 .707 -4.556 11)"/><path d="m14.879 14.879h4.243v4.243h-4.243z" transform="matrix(.707 -.707 .707 .707 -7.042 17)"/><path d="m20.879 20.879h4.243v4.243h-4.243z" transform="matrix(.707 -.707 .707 .707 -9.527 23)"/><path d="m61 3v3l-2 2-3-3 2-2z"/><path d="m50.879 8.879h4.243v4.243h-4.243z" transform="matrix(.707 -.707 .707 .707 7.745 40.698)"/><path d="m44.879 14.879h4.243v4.243h-4.243z" transform="matrix(.707 -.707 .707 .707 1.745 38.213)"/><path d="m38.879 20.879h4.243v4.243h-4.243z" transform="matrix(.707 -.707 .707 .707 -4.255 35.728)"/></g></g></svg>